<svg xmlns="http://www.w3.org/2000/svg" width="274.942" height="95.215" viewBox="0 0 274.942 95.215">
  <g id="art-logo" transform="translate(-446.32 -2966.785)">
    <path id="Path_30" data-name="Path 30" d="M-42.465,0H-59.7L-90.419-61.855l-23.352,47.538H-78.6L-69.152,0H-137.68l47.26-95.215ZM28.843,0H45.105L27.591-34.472a18.928,18.928,0,0,0,7.089-3.267,25.554,25.554,0,0,0,5.769-5.838,28.138,28.138,0,0,0,3.823-7.645,27.712,27.712,0,0,0,1.39-8.687,29.667,29.667,0,0,0-1.876-10.634,28.287,28.287,0,0,0-5-8.548,22.562,22.562,0,0,0-7.3-5.63,19.878,19.878,0,0,0-8.757-2.015H-30.649V0h14.873V-72.558H21.059a6.653,6.653,0,0,1,3.822,1.181A10.239,10.239,0,0,1,27.8-68.319a15.788,15.788,0,0,1,1.807,4.031,15.158,15.158,0,0,1,.625,4.24,17.724,17.724,0,0,1-.486,4.031,12.158,12.158,0,0,1-1.6,3.822,9.6,9.6,0,0,1-2.78,2.85,6.852,6.852,0,0,1-3.892,1.112H4.379ZM61.507-86.736v14.178H91.671V0h15.012V-72.558h30.58V-86.736Z" transform="translate(584 3062)" fill="#fff"/>
    <path id="Path_29" data-name="Path 29" d="M-113.771-14.317H-78.6L-69.152,0H-137.68l6.964-14.317h16.944Z" transform="translate(584 3062)" fill="#06b7fa"/>
  </g>
</svg>
